<svg xmlns="http://www.w3.org/2000/svg" viewBox="0 0 1000 301.35"><defs><style>.cls-1{fill:#f90;}.cls-1,.cls-2{fill-rule:evenodd;}.cls-2{fill:#fff;}</style></defs><g id="Capa_2" data-name="Capa 2"><g id="svg1936"><path id="path8" class="cls-1" d="M620.38,235.67C562.27,278.5,478,301.35,405.52,301.35c-101.69,0-193.23-37.61-262.48-100.16-5.44-4.92-.57-11.62,6-7.79,74.74,43.49,167.15,69.65,262.61,69.65,64.38,0,135.21-13.32,200.33-41,9.83-4.18,18.06,6.44,8.44,13.58"/><path id="path10" class="cls-1" d="M644.54,208c-7.4-9.49-49.1-4.49-67.82-2.27-5.7.7-6.57-4.26-1.44-7.83,33.22-23.38,87.72-16.63,94.07-8.79s-1.65,62.5-32.86,88.58c-4.79,4-9.36,1.87-7.23-3.44,7-17.5,22.72-56.72,15.28-66.25"/><path id="path12" class="cls-2" d="M578,32.91V10.19a5.61,5.61,0,0,1,5.74-5.75H685.5a5.66,5.66,0,0,1,5.88,5.75V29.64c0,3.27-2.79,7.53-7.66,14.28L631,119.18c19.59-.48,40.27,2.44,58,12.45,4,2.27,5.09,5.57,5.39,8.84v24.25c0,3.3-3.65,7.18-7.48,5.18-31.3-16.42-72.87-18.2-107.48.17-3.52,1.91-7.22-1.92-7.22-5.22v-23c0-3.7,0-10,3.74-15.63l61.07-87.58H583.9a5.63,5.63,0,0,1-5.87-5.7"/><path id="path14" class="cls-2" d="M206.94,174.68H176a5.84,5.84,0,0,1-5.53-5.26V10.58a5.81,5.81,0,0,1,6-5.7h28.86a5.82,5.82,0,0,1,5.62,5.31V31h.57C219,10.88,233.14,1.52,252.21,1.52c19.37,0,31.47,9.36,40.18,29.43,7.48-20.07,24.5-29.43,42.74-29.43,13,0,27.16,5.36,35.83,17.37,9.79,13.37,7.79,32.78,7.79,49.8l0,100.25a5.84,5.84,0,0,1-6,5.74h-30.9a5.89,5.89,0,0,1-5.58-5.74V84.75c0-6.7.61-23.42-.87-29.77-2.3-10.67-9.22-13.67-18.19-13.67-7.49,0-15.32,5-18.5,13s-2.87,21.42-2.87,30.43v84.19a5.84,5.84,0,0,1-6,5.74H259a5.85,5.85,0,0,1-5.58-5.74l0-84.19C253.34,67,256.26,41,234.28,41,212,41,212.9,66.38,212.9,84.75v84.19a5.84,5.84,0,0,1-6,5.74"/><path id="path16" class="cls-2" d="M779,1.52c45.92,0,70.78,39.44,70.78,89.59,0,48.45-27.47,86.88-70.78,86.88-45.1,0-69.65-39.44-69.65-88.58C709.31,40,734.17,1.52,779,1.52M779.22,34C756.41,34,755,65,755,84.4s-.3,60.86,24,60.86c24,0,25.11-33.43,25.11-53.8,0-13.41-.56-29.43-4.61-42.14C796,38.26,789.06,34,779.22,34"/><path id="path18" class="cls-2" d="M909.28,174.68H878.47a5.89,5.89,0,0,1-5.58-5.74l0-158.88a5.85,5.85,0,0,1,6-5.18H907.5A5.91,5.91,0,0,1,913,9.32V33.6h.56c8.67-21.72,20.81-32.08,42.18-32.08,13.89,0,27.43,5,36.13,18.72C1000,33,1000,54.32,1000,69.69v100a6,6,0,0,1-6,5H963a5.84,5.84,0,0,1-5.48-5V83.4c0-17.37,2-42.79-19.38-42.79-7.53,0-14.45,5-17.89,12.71-4.35,9.71-4.91,19.37-4.91,30.08v85.54a6,6,0,0,1-6.06,5.74"/><path id="path28" class="cls-2" d="M496.93,98.81c0,12.06.31,22.11-5.79,32.82-4.92,8.71-12.75,14.06-21.41,14.06-11.89,0-18.85-9.05-18.85-22.41,0-26.38,23.63-31.17,46.05-31.17v6.7m31.21,75.44a6.45,6.45,0,0,1-7.31.74c-10.27-8.53-12.15-12.49-17.76-20.63-17,17.32-29,22.5-51,22.5-26.07,0-46.31-16.06-46.31-48.23,0-25.12,13.58-42.22,33-50.58,16.8-7.4,40.27-8.71,58.2-10.75v-4c0-7.35.57-16.06-3.79-22.42-3.74-5.7-11-8-17.36-8-11.8,0-22.29,6-24.86,18.59-.52,2.78-2.57,5.53-5.4,5.66l-30-3.22c-2.52-.57-5.35-2.62-4.61-6.49C417.79,11,450.7,0,480.13,0c15.06,0,34.74,4,46.62,15.41,15.06,14.06,13.62,32.82,13.62,53.24v48.23c0,14.49,6,20.85,11.67,28.68,2,2.79,2.39,6.14-.13,8.23-6.31,5.27-17.54,15.06-23.72,20.55l-.05-.09"/><path id="path30" class="cls-2" d="M91.19,98.81c0,12.06.31,22.11-5.79,32.82-4.91,8.71-12.71,14.06-21.41,14.06-11.89,0-18.81-9.05-18.81-22.41,0-26.38,23.64-31.17,46-31.17v6.7m31.21,75.44a6.45,6.45,0,0,1-7.31.74c-10.27-8.53-12.1-12.49-17.76-20.63-17,17.32-29,22.5-51,22.5C20.28,176.86,0,160.8,0,128.63c0-25.12,13.62-42.22,33-50.58,16.8-7.4,40.26-8.71,58.19-10.75v-4c0-7.35.57-16.06-3.74-22.42-3.79-5.7-11-8-17.37-8-11.79,0-22.33,6-24.9,18.59-.52,2.78-2.56,5.53-5.35,5.66l-30-3.22c-2.52-.57-5.31-2.62-4.61-6.49C12.1,11,45,0,74.39,0,89.45,0,109.13,4,121,15.41c15.06,14.06,13.63,32.82,13.63,53.24v48.23c0,14.49,6,20.85,11.66,28.68,2,2.79,2.44,6.14-.08,8.23-6.32,5.27-17.55,15.06-23.73,20.55l-.09-.09"/></g></g></svg>